<svg xmlns="http://www.w3.org/2000/svg" version="1.1" xmlns:xlink="http://www.w3.org/1999/xlink" xmlns:svgjs="http://svgjs.com/svgjs" width="1440" height="560" preserveAspectRatio="none" viewBox="0 0 1440 560"><g mask="url(&quot;#SvgjsMask1398&quot;)" fill="none"><rect width="1440" height="560" x="0" y="0" fill="rgba(18, 68, 82, 1)"></rect><path d="M730.553,181.692C757.68,181.561,779.681,161.63,792.427,137.684C804.362,115.262,804.935,88.341,791.82,66.588C779.109,45.505,755.171,35.007,730.553,35.055C706.026,35.102,682.46,45.881,669.695,66.825C656.403,88.635,655.68,115.717,667.637,138.286C680.422,162.416,703.245,181.824,730.553,181.692" fill="rgba(114, 178, 189, 0.45)" class="triangle-float2"></path><path d="M1368.356,347.859C1409.805,347.02,1442.996,316.311,1462.158,279.548C1479.811,245.68,1478.277,206.025,1459.668,172.672C1440.529,138.368,1407.632,112.126,1368.356,111.424C1327.962,110.702,1291.606,134.431,1271.212,169.305C1250.61,204.534,1248.232,247.636,1267.736,283.485C1288.131,320.972,1325.689,348.723,1368.356,347.859" fill="rgba(114, 178, 189, 0.45)" class="triangle-float3"></path><path d="M131.672,652.912C174.193,652.009,197.384,607.139,216.029,568.913C231.831,536.517,239.506,499.569,221.774,468.188C203.784,436.35,168.225,420.71,131.672,419.622C92.847,418.467,51.599,429.132,31.777,462.535C11.635,496.477,22.534,537.683,40.872,572.632C60.991,610.975,88.381,653.831,131.672,652.912" fill="rgba(114, 178, 189, 0.45)" class="triangle-float2"></path><path d="M54.296,261.652C82.861,261.597,103.601,238.86,119.163,214.906C136.848,187.685,157.593,155.295,141.83,126.917C125.844,98.137,87.218,97.992,54.296,98.124C21.705,98.255,-16.147,99.156,-32.027,127.617C-47.699,155.705,-28.416,188.114,-11.001,215.155C4.506,239.233,25.657,261.707,54.296,261.652" fill="rgba(114, 178, 189, 0.45)" class="triangle-float3"></path><path d="M184.983,621.642C229.562,622.924,280.96,625.22,305.119,587.734C330.534,548.298,314.342,497.861,290.976,457.178C267.495,416.294,232.123,377.768,184.983,378.563C138.775,379.343,106.865,419.933,85.009,460.653C64.596,498.685,53.476,544.483,76.247,581.152C98.116,616.367,143.547,620.45,184.983,621.642" fill="rgba(114, 178, 189, 0.45)" class="triangle-float1"></path></g><defs><mask id="SvgjsMask1398"><rect width="1440" height="560" fill="#ffffff"></rect></mask><style>
            @keyframes float1 {
                0%{transform: translate(0, 0)}
                50%{transform: translate(-10px, 0)}
                100%{transform: translate(0, 0)}
            }

            .triangle-float1 {
                animation: float1 5s infinite;
            }

            @keyframes float2 {
                0%{transform: translate(0, 0)}
                50%{transform: translate(-5px, -5px)}
                100%{transform: translate(0, 0)}
            }

            .triangle-float2 {
                animation: float2 4s infinite;
            }

            @keyframes float3 {
                0%{transform: translate(0, 0)}
                50%{transform: translate(0, -10px)}
                100%{transform: translate(0, 0)}
            }

            .triangle-float3 {
                animation: float3 6s infinite;
            }
        </style></defs></svg>