<svg xmlns="http://www.w3.org/2000/svg" version="1.1" xmlns:xlink="http://www.w3.org/1999/xlink" xmlns:svgjs="http://svgjs.com/svgjs" width="1440" height="560" preserveAspectRatio="none" viewBox="0 0 1440 560"><g mask="url(&quot;#SvgjsMask1301&quot;)" fill="none"><rect width="1440" height="560" x="0" y="0" fill="rgba(18, 68, 82, 1)"></rect><path d="M1238.273,722.606C1293.483,721.964,1350.279,701.724,1376.256,653.003C1401.107,606.393,1380.355,552.292,1353.253,506.954C1327.066,463.147,1289.309,422.421,1238.273,422.178C1186.916,421.933,1148.241,462.076,1121.379,505.849C1092.828,552.374,1068.704,608.233,1094.614,656.279C1121.447,706.035,1181.747,723.264,1238.273,722.606" fill="rgba(25, 149, 145, 0.31)" class="triangle-float3"></path><path d="M255.94,193.635C275.336,192.065,290.487,179.461,301.062,163.126C312.959,144.749,324.183,122.908,314.407,103.32C303.879,82.225,279.459,71.074,255.94,72.718C234.744,74.2,221.101,92.431,210.103,110.611C198.527,129.745,185.297,152.044,196.106,171.621C207.115,191.561,233.237,195.472,255.94,193.635" fill="rgba(25, 149, 145, 0.31)" class="triangle-float3"></path><path d="M149.084,739.296C210.325,743.858,279.844,728.691,308.177,674.207C335.334,621.985,296.539,565.162,265.715,515.017C237.018,468.333,203.792,418.561,149.084,415.397C89.941,411.976,33.65,447.379,6.482,500.024C-18.827,549.066,-1.899,605.805,26.355,653.212C53.774,699.218,95.675,735.317,149.084,739.296" fill="rgba(25, 149, 145, 0.31)" class="triangle-float1"></path><path d="M55.313,538.686C104.918,540.841,144.594,501.756,168.728,458.364C192.097,416.345,198.889,365.508,174.758,323.922C150.709,282.476,103.212,261.578,55.313,262.91C9.717,264.178,-31.995,289.851,-53.153,330.261C-72.946,368.064,-61.926,411.347,-42.227,449.199C-20.395,491.15,8.066,536.633,55.313,538.686" fill="rgba(25, 149, 145, 0.31)" class="triangle-float2"></path><path d="M158.606,445.216C207.83,447.393,265.63,445.964,289.932,403.102C314.07,360.529,283.521,311.655,258.016,269.886C234.04,230.621,204.513,191.055,158.606,188.034C108.036,184.706,58.088,210.739,33.618,255.119C9.856,298.214,18.935,351.191,45.971,392.311C70.396,429.46,114.19,443.251,158.606,445.216" fill="rgba(25, 149, 145, 0.31)" class="triangle-float1"></path></g><defs><mask id="SvgjsMask1301"><rect width="1440" height="560" fill="#ffffff"></rect></mask><style>
            @keyframes float1 {
                0%{transform: translate(0, 0)}
                50%{transform: translate(-10px, 0)}
                100%{transform: translate(0, 0)}
            }

            .triangle-float1 {
                animation: float1 5s infinite;
            }

            @keyframes float2 {
                0%{transform: translate(0, 0)}
                50%{transform: translate(-5px, -5px)}
                100%{transform: translate(0, 0)}
            }

            .triangle-float2 {
                animation: float2 4s infinite;
            }

            @keyframes float3 {
                0%{transform: translate(0, 0)}
                50%{transform: translate(0, -10px)}
                100%{transform: translate(0, 0)}
            }

            .triangle-float3 {
                animation: float3 6s infinite;
            }
        </style></defs></svg>